# xmcd
#
# Track frame offsets:
#	150
#	10029
#	20904
#	36803
#	47011
#	55147
#	72294
#	86012
#	102184
#	112751
#	129952
#	142881
#	156483
#	171930
#	182941
#	198309
#	212412
#	225415
#	240053
#	255228
#	271377
#
# Disc length: 3887 seconds
#
# Revision: 1
# Processed by: cddbd v1.5.2PL0 Copyright (c) Steve Scherf et al.
# Submitted via: EZCDAudioConverter 2.1.7.1
#
DISCID=0d0f2d15
DTITLE=V/A - Magpie
DYEAR=2003
DGENRE=
TTITLE0=Peter Wyngarde aka Jason King - Intro: Come In
TTITLE1=Murgatroyd Band - Magpie
TTITLE2=CCS - Whole Lotta Love
TTITLE3=Don Fardon - Belfast Boy
TTITLE4=Alan Hawkshaw - Hot Pants
TTITLE5=Johnny Scott - The Good Word
TTITLE6=Samatha Jones - TC Theme 1
TTITLE7=Stanley Myers - Another Love
TTITLE8=Les Reed - Man Of Action
TTITLE9=Highly Likely featuring Tony Rivers - Whatever Happened To You
TTITLE10=Hot Rocks - Chopper
TTITLE11=Steve Ellis - Loots The Root
TTITLE12=The Matchmakers - Thank You Baby
TTITLE13=Krimson Kake - Waiter
TTITLE14=Patchwork - Laughing Sam
TTITLE15=Mr. Brooks - The Family Theme
TTITLE16=Stanley Myers - The First Time
TTITLE17=Andrew Bown - Tarot
TTITLE18=Rumplestiltskin - Rumplestiltskin
TTITLE19=Pick Of The Pops featuring Elton John - Spirit In The Sky
TTITLE20=Peter Wyngarde aka Jason King - Neville Thumbcatch
EXTD=
EXTT0=
EXTT1=
EXTT2=
EXTT3=
EXTT4=
EXTT5=
EXTT6=
EXTT7=
EXTT8=
EXTT9=
EXTT10=
EXTT11=
EXTT12=
EXTT13=
EXTT14=
EXTT15=
EXTT16=
EXTT17=
EXTT18=
EXTT19=
EXTT20=
PLAYORDER=
